<?xml version="1.0" encoding="UTF-8"?>
<svg xmlns="http://www.w3.org/2000/svg" xmlns:xlink="http://www.w3.org/1999/xlink" width="612pt" height="792pt" viewBox="0 0 612 792" version="1.1">
<g id="surface1">
<path style=" stroke:none;fill-rule:nonzero;fill:rgb(100%,100%,100%);fill-opacity:1;" d="M 19.3125 429.445313 L 22.664063 417.375 C 22.878906 415.777344 23.179688 414.753906 23.558594 414.300781 C 23.941406 413.847656 24.378906 413.621094 24.867188 413.621094 C 25.847656 413.621094 26.964844 414.765625 28.214844 417.054688 C 29.140625 418.710938 29.902344 419.761719 30.503906 420.214844 C 31.101563 420.667969 31.972656 420.972656 33.117188 421.132813 L 33.933594 421.054688 L 37.445313 421.375 L 56.722656 421.613281 L 79.507813 421.535156 L 86.207031 421.535156 L 98.863281 421.300781 C 99.410156 421.300781 100.089844 421.355469 100.90625 421.457031 C 104.609375 421.777344 106.894531 421.933594 107.765625 421.933594 C 108.585938 421.933594 109.238281 421.671875 109.726563 421.148438 C 109.890625 420.941406 110.789063 419.183594 112.421875 415.871094 C 113.128906 414.371094 114 413.621094 115.035156 413.621094 C 115.472656 413.621094 116.015625 413.726563 116.671875 413.9375 C 116.941406 414.996094 117.078125 415.949219 117.078125 416.792969 L 116.996094 419.964844 L 117.078125 426.707031 C 117.078125 428.34375 116.941406 433.632813 116.671875 442.566406 C 116.671875 443.152344 116.558594 443.679688 116.34375 444.15625 C 115.742188 444.523438 115.226563 444.710938 114.792969 444.710938 C 114.355469 444.710938 113.976563 444.511719 113.648438 444.117188 C 113.320313 443.71875 112.914063 442.492188 112.421875 440.433594 C 111.332031 435.679688 109.972656 432.273438 108.339844 430.214844 C 107.25 428.890625 105.683594 427.941406 103.640625 427.359375 C 101.601563 426.777344 96.714844 426.488281 88.984375 426.488281 L 75.179688 426.488281 C 75.070313 428.621094 75.015625 430.566406 75.015625 432.328125 L 75.667969 482.003906 C 75.667969 483.976563 75.558594 487.707031 75.34375 493.199219 L 75.425781 503.839844 L 75.34375 509.757813 C 75.34375 511.625 75.667969 512.960938 76.324219 513.757813 C 76.976563 514.558594 78.746094 515.332031 81.632813 516.078125 C 86.640625 517.304688 89.988281 518.050781 91.675781 518.316406 C 92.710938 518.425781 93.554688 518.636719 94.210938 518.957031 L 94.210938 521.355469 L 82.613281 521.070313 C 76.242188 521.023438 71.449219 520.90625 68.238281 520.714844 L 56.3125 521.273438 L 47.574219 521.753906 C 45.125 521.753906 43.625 521.703125 43.082031 521.59375 L 41.9375 521.117188 C 42.046875 519.886719 42.292969 519.105469 42.671875 518.757813 C 43.050781 518.414063 44.0625 518.132813 45.695313 517.917969 C 47.980469 517.597656 50.675781 517.027344 53.78125 516.199219 C 56.882813 515.375 58.925781 514.535156 59.90625 513.683594 C 60.449219 513.203125 60.832031 512.402344 61.050781 511.285156 C 61.539063 508.941406 61.785156 504.332031 61.785156 497.457031 L 61.785156 483.871094 L 61.457031 454.21875 L 61.132813 447.828125 L 61.050781 426.488281 L 47.898438 426.488281 C 40.058594 426.488281 35.292969 426.953125 33.605469 427.882813 C 30.9375 429.332031 26.964844 433.570313 21.683594 440.597656 C 19.9375 443.234375 18.414063 444.550781 17.109375 444.550781 L 16.375 444.390625 C 16.15625 444.070313 16.046875 443.78125 16.046875 443.511719 C 16.046875 442.871094 16.480469 440.953125 17.351563 437.757813 C 18.441406 433.65625 19.09375 430.882813 19.3125 429.445313 "/>
<path style="fill:none;stroke-width:1;stroke-linecap:butt;stroke-linejoin:miter;stroke:rgb(100%,100%,100%);stroke-opacity:1;stroke-miterlimit:10;" d="M -0.001 -0.0010125 L 3.350562 12.0693 C 3.565406 13.666956 3.866187 14.690394 4.245094 15.143519 C 4.627906 15.596644 5.065406 15.823206 5.553687 15.823206 C 6.534156 15.823206 7.651344 14.678675 8.901344 12.389612 C 9.827125 10.733362 10.588844 9.682581 11.190406 9.229456 C 11.788062 8.776331 12.659156 8.471644 13.803687 8.311487 L 14.620094 8.389612 L 18.131812 8.0693 L 37.409156 7.831019 L 60.194312 7.909144 L 66.893531 7.909144 L 79.549781 8.143519 C 80.096656 8.143519 80.776344 8.088831 81.59275 7.987269 C 85.295875 7.666956 87.581031 7.510706 88.452125 7.510706 C 89.272437 7.510706 89.924781 7.772425 90.413062 8.295862 C 90.577125 8.502894 91.475562 10.260706 93.108375 13.573206 C 93.815406 15.073206 94.6865 15.823206 95.721656 15.823206 C 96.159156 15.823206 96.702125 15.717737 97.358375 15.5068 C 97.627906 14.448206 97.764625 13.495081 97.764625 12.651331 L 97.682594 9.479456 L 97.764625 2.737269 C 97.764625 1.10055 97.627906 -4.188513 97.358375 -13.122106 C 97.358375 -13.708044 97.245094 -14.235388 97.03025 -14.71195 C 96.428687 -15.079138 95.913062 -15.266638 95.479469 -15.266638 C 95.041969 -15.266638 94.663062 -15.067419 94.334937 -14.672888 C 94.006812 -14.27445 93.600562 -13.047888 93.108375 -10.989294 C 92.018531 -6.235388 90.659156 -2.829138 89.026344 -0.770544 C 87.9365 0.553675 86.370094 1.502894 84.327125 2.084925 C 82.288062 2.666956 77.401344 2.956019 69.670875 2.956019 L 55.866187 2.956019 C 55.756812 0.823206 55.702125 -1.122106 55.702125 -2.883825 L 56.354469 -52.559606 C 56.354469 -54.532263 56.245094 -58.262731 56.03025 -63.754919 L 56.112281 -74.395544 L 56.03025 -80.313513 C 56.03025 -82.1807 56.354469 -83.516638 57.010719 -84.313513 C 57.663062 -85.114294 59.432594 -85.887731 62.319312 -86.633825 C 67.327125 -87.860388 70.674781 -88.606481 72.362281 -88.872106 C 73.397437 -88.981481 74.241187 -89.192419 74.897437 -89.512731 L 74.897437 -91.911169 L 63.299781 -91.626013 C 56.928687 -91.579138 52.135719 -91.46195 48.924781 -91.270544 L 36.999 -91.829138 L 28.260719 -92.309606 C 25.8115 -92.309606 24.3115 -92.258825 23.768531 -92.14945 L 22.624 -91.672888 C 22.733375 -90.442419 22.979469 -89.661169 23.358375 -89.313513 C 23.737281 -88.969763 24.749 -88.688513 26.381812 -88.473669 C 28.666969 -88.153356 31.362281 -87.583044 34.46775 -86.754919 C 37.569312 -85.9307 39.612281 -85.090856 40.59275 -84.239294 C 41.135719 -83.758825 41.518531 -82.958044 41.737281 -81.840856 C 42.225562 -79.497106 42.471656 -74.887731 42.471656 -68.012731 L 42.471656 -54.426794 L 42.143531 -24.77445 L 41.819312 -18.383825 L 41.737281 2.956019 L 28.584937 2.956019 C 20.745094 2.956019 15.979469 2.491175 14.291969 1.561487 C 11.624 0.112269 7.651344 -4.126013 2.370094 -11.153356 C 0.624 -13.790075 -0.899438 -15.106481 -2.204125 -15.106481 L -2.9385 -14.946325 C -3.15725 -14.626013 -3.266625 -14.33695 -3.266625 -14.067419 C -3.266625 -13.426794 -2.833031 -11.508825 -1.961938 -8.313513 C -0.872094 -4.21195 -0.21975 -1.438513 -0.001 -0.0010125 Z M -0.001 -0.0010125 " transform="matrix(1,0,0,-1,19.3135,429.4443)"/>
<path style=" stroke:none;fill-rule:nonzero;fill:rgb(100%,100%,100%);fill-opacity:1;" d="M 130.117188 470.316406 C 135.671875 470.640625 142.003906 470.800781 149.117188 470.800781 C 153.167969 470.800781 156.722656 470.667969 159.789063 470.398438 C 159.269531 468.28125 158.671875 466.300781 157.996094 464.453125 C 154.625 455.011719 152.761719 449.804688 152.398438 448.828125 L 145.320313 430.027344 L 144.542969 428.558594 C 144.230469 429.210938 143.085938 432.007813 141.113281 436.945313 C 137.785156 445.410156 135.394531 452.003906 133.9375 456.722656 C 133.261719 458.839844 132.558594 460.941406 131.832031 463.03125 C 131.105469 465.117188 130.648438 466.585938 130.464844 467.425781 C 130.285156 468.265625 130.011719 469.121094 129.648438 469.988281 Z M 92.957031 519.167969 C 93.683594 518.738281 94.332031 518.519531 94.902344 518.519531 L 96.691406 518.519531 C 97.054688 518.519531 97.675781 518.492188 98.5625 518.4375 C 102.558594 518.058594 104.917969 517.675781 105.644531 517.296875 C 107.460938 516.265625 109.019531 514.472656 110.316406 511.921875 C 113.015625 506.386719 116.054688 498.542969 119.429688 488.390625 C 121.039063 483.558594 122.050781 480.628906 122.46875 479.597656 C 123.765625 476.339844 125.011719 472.921875 126.207031 469.335938 L 133.527344 447.921875 C 134.671875 444.558594 137.421875 436.851563 141.785156 424.796875 C 142.875 421.757813 144.199219 417.6875 145.757813 412.585938 L 148.050781 412.421875 L 150.773438 412.503906 C 153.003906 417.117188 154.976563 422.085938 156.6875 427.40625 C 157.617188 430.226563 159.148438 434.433594 161.277344 440.023438 L 173.097656 473.492188 L 179.398438 491.648438 C 182.71875 501.960938 184.902344 508.300781 185.941406 510.660156 C 186.980469 513.023438 187.9375 514.582031 188.824219 515.34375 C 189.082031 515.558594 190.054688 515.886719 191.742188 516.320313 C 193.429688 516.753906 194.609375 517.082031 195.285156 517.296875 C 197.671875 518.003906 199.335938 518.601563 200.269531 519.089844 C 200.476563 519.6875 200.582031 520.148438 200.582031 520.472656 C 200.582031 520.746094 200.503906 521.152344 200.347656 521.695313 C 198.6875 521.75 197.519531 521.777344 196.84375 521.777344 C 194.195313 521.777344 189.523438 521.695313 182.824219 521.53125 L 175.039063 521.347656 L 165.613281 521.46875 C 164.992188 521.46875 164.355469 521.441406 163.707031 521.378906 C 163.058594 521.316406 162.5 521.285156 162.03125 521.285156 L 160.320313 521.285156 C 159.746094 521.234375 159.230469 521.070313 158.761719 520.796875 C 158.761719 520.039063 158.890625 519.304688 159.152344 518.601563 C 159.773438 518.273438 160.34375 518.085938 160.863281 518.03125 L 169.039063 517.460938 C 171.164063 517.351563 172.777344 517.050781 173.867188 516.5625 C 174.175781 515.585938 174.332031 514.847656 174.332031 514.359375 C 174.332031 513.378906 173.65625 510.851563 172.308594 506.773438 C 171.375 504.050781 170.558594 501.46875 169.859375 499.023438 C 169.160156 496.578125 166.398438 488.527344 161.574219 474.875 C 159.445313 474.496094 157.578125 474.304688 155.96875 474.304688 L 139.304688 474.464844 L 134.398438 474.382813 C 132.632813 474.382813 130.683594 474.523438 128.558594 474.792969 C 127.878906 476.421875 127.4375 477.589844 127.230469 478.292969 L 120.367188 500.6875 C 117.460938 509.210938 116.007813 513.90625 116.007813 514.773438 C 116.007813 515.261719 116.242188 516.074219 116.707031 517.214844 C 117.796875 517.542969 119.25 517.839844 121.070313 518.113281 L 131.660156 519.089844 C 132.230469 519.578125 132.515625 520.011719 132.515625 520.390625 C 132.515625 520.664063 132.441406 521.070313 132.285156 521.613281 C 129.949219 521.667969 128.15625 521.695313 126.910156 521.695313 C 122.753906 521.695313 117.925781 521.558594 112.425781 521.285156 C 109.882813 521.179688 108.066406 521.125 106.972656 521.125 C 105.882813 521.125 103.988281 521.179688 101.289063 521.285156 C 99.523438 521.394531 98.25 521.449219 97.472656 521.449219 C 96.226563 521.449219 94.617188 521.367188 92.644531 521.207031 L 92.644531 520.714844 C 92.644531 520.335938 92.75 519.820313 92.957031 519.167969 "/>
<path style="fill:none;stroke-width:1;stroke-linecap:butt;stroke-linejoin:miter;stroke:rgb(100%,100%,100%);stroke-opacity:1;stroke-miterlimit:10;" d="M 0.0004875 -0.00190625 C 5.555175 -0.326125 11.887206 -0.486281 19.000488 -0.486281 C 23.051269 -0.486281 26.605956 -0.353469 29.672363 -0.0839375 C 29.152831 2.03325 28.555175 4.013719 27.879394 5.861375 C 24.5083 15.302781 22.645019 20.509813 22.281738 21.486375 L 15.203613 40.287156 L 14.426269 41.755906 C 14.113769 41.103563 12.969238 38.306688 10.996581 33.369188 C 7.668456 24.904344 5.277831 18.310594 3.8208 13.591844 C 3.145019 11.474656 2.441894 9.373094 1.715331 7.28325 C 0.988769 5.197313 0.531738 3.728563 0.348144 2.888719 C 0.168456 2.048875 -0.104981 1.193406 -0.468262 0.326219 Z M -37.159669 -48.853469 C -36.433106 -48.423781 -35.784669 -48.205031 -35.214356 -48.205031 L -33.425294 -48.205031 C -33.062012 -48.205031 -32.440919 -48.177687 -31.5542 -48.123 C -27.558106 -47.744094 -25.198731 -47.361281 -24.472169 -46.982375 C -22.655762 -45.951125 -21.097169 -44.158156 -19.800294 -41.607375 C -17.101075 -36.072219 -14.062012 -28.228469 -10.687012 -18.076125 C -9.077637 -13.244094 -8.065919 -10.314406 -7.64795 -9.283156 C -6.351075 -6.025344 -5.104981 -2.607375 -3.909669 0.978563 L 3.410644 22.392625 C 4.555175 25.755906 7.305175 33.462938 11.668456 45.517625 C 12.7583 48.556688 14.082519 52.627 15.641113 57.728563 L 17.934081 57.892625 L 20.656738 57.810594 C 22.887206 53.197313 24.859863 48.228563 26.5708 42.90825 C 27.500488 40.087938 29.031738 35.880906 31.160644 30.291063 L 42.980956 -3.177687 L 49.281738 -21.333937 C 52.60205 -31.646437 54.785644 -37.986281 55.824706 -40.345656 C 56.863769 -42.708937 57.8208 -44.267531 58.707519 -45.02925 C 58.965331 -45.244094 59.937988 -45.572219 61.625488 -46.005812 C 63.312988 -46.439406 64.492675 -46.767531 65.168456 -46.982375 C 67.555175 -47.689406 69.219238 -48.287062 70.152831 -48.775344 C 70.359863 -49.373 70.465331 -49.833937 70.465331 -50.158156 C 70.465331 -50.431594 70.387206 -50.837844 70.230956 -51.380812 C 68.5708 -51.4355 67.402831 -51.462844 66.72705 -51.462844 C 64.078613 -51.462844 59.406738 -51.380812 52.707519 -51.21675 L 44.922363 -51.033156 L 35.496581 -51.15425 C 34.875488 -51.15425 34.238769 -51.126906 33.590331 -51.064406 C 32.941894 -51.001906 32.3833 -50.970656 31.91455 -50.970656 L 30.203613 -50.970656 C 29.629394 -50.919875 29.113769 -50.755812 28.645019 -50.482375 C 28.645019 -49.724562 28.773925 -48.990187 29.035644 -48.287062 C 29.656738 -47.958937 30.22705 -47.771437 30.746581 -47.71675 L 38.922363 -47.146437 C 41.047363 -47.037062 42.660644 -46.736281 43.750488 -46.248 C 44.059081 -45.271437 44.215331 -44.533156 44.215331 -44.044875 C 44.215331 -43.064406 43.53955 -40.537062 42.191894 -36.458937 C 41.2583 -33.736281 40.441894 -31.15425 39.742675 -28.708937 C 39.043456 -26.263625 36.281738 -18.212844 31.457519 -4.5605 C 29.328613 -4.181594 27.461425 -3.990187 25.85205 -3.990187 L 9.187988 -4.150344 L 4.281738 -4.068312 C 2.516113 -4.068312 0.566894 -4.208937 -1.558106 -4.478469 C -2.237794 -6.107375 -2.6792 -7.275344 -2.886231 -7.978469 L -9.749512 -30.373 C -12.655762 -38.896437 -14.108887 -43.59175 -14.108887 -44.458937 C -14.108887 -44.947219 -13.874512 -45.759719 -13.409669 -46.900344 C -12.319825 -47.228469 -10.8667 -47.525344 -9.046387 -47.798781 L 1.543456 -48.775344 C 2.113769 -49.263625 2.398925 -49.697219 2.398925 -50.076125 C 2.398925 -50.349562 2.324706 -50.755812 2.168456 -51.298781 C -0.167481 -51.353469 -1.96045 -51.380812 -3.206544 -51.380812 C -7.362794 -51.380812 -12.190919 -51.244094 -17.690919 -50.970656 C -20.233887 -50.865187 -22.050294 -50.8105 -23.144044 -50.8105 C -24.233887 -50.8105 -26.128419 -50.865187 -28.827637 -50.970656 C -30.593262 -51.080031 -31.8667 -51.134719 -32.644044 -51.134719 C -33.890137 -51.134719 -35.499512 -51.052687 -37.472169 -50.892531 L -37.472169 -50.400344 C -37.472169 -50.021437 -37.3667 -49.505812 -37.159669 -48.853469 Z M -37.159669 -48.853469 " transform="matrix(1,0,0,-1,130.1167,470.3145)"/>
<path style="fill-rule:nonzero;fill:rgb(100%,100%,100%);fill-opacity:1;stroke-width:1;stroke-linecap:butt;stroke-linejoin:miter;stroke:rgb(100%,100%,100%);stroke-opacity:1;stroke-miterlimit:10;" d="M -0.00004375 0.00099375 L 3.949175 0.00099375 C 5.37105 0.00099375 8.49605 -0.073225 13.324175 -0.21385 C 20.7773 -0.499006 26.972612 -0.639631 31.906206 -0.639631 L 41.531206 -0.479475 C 42.898394 -0.479475 44.2148 -0.58885 45.476519 -0.799788 C 45.859331 -1.225569 46.054644 -1.678694 46.054644 -2.159163 L 46.054644 -3.038069 L 43.984331 -3.9951 L 43.074175 -3.9951 L 38.445269 -4.077131 L 36.046831 -3.9951 C 34.171831 -3.9951 32.656206 -4.397444 31.499956 -5.194319 C 30.62105 -5.780256 30.179644 -6.393538 30.179644 -7.034163 C 30.179644 -7.729475 30.562456 -8.604475 31.331987 -9.670881 C 31.605425 -10.100569 32.046831 -10.737288 32.648394 -11.592756 C 33.74605 -13.40135 35.199175 -15.510725 37.011675 -17.909163 C 39.5898 -21.428694 42.331987 -25.58885 45.238237 -30.385725 C 46.390581 -32.3076 47.597612 -34.147444 48.859331 -35.905256 L 61.367144 -54.303694 C 62.191362 -53.291975 63.320269 -51.795881 64.749956 -49.823225 L 76.617144 -33.264631 L 90.296831 -13.346663 C 91.503862 -11.534163 92.2148 -10.202131 92.437456 -9.350569 C 92.542925 -8.924788 92.601519 -8.471663 92.601519 -7.991194 C 92.601519 -6.874006 92.078081 -5.967756 91.035112 -5.27635 C 89.335894 -4.155256 85.664019 -3.331038 80.015581 -2.799788 C 79.632769 -2.7451 79.113237 -2.663069 78.453081 -2.5576 C 78.070269 -1.916975 77.878862 -1.385725 77.878862 -0.959944 C 77.878862 -0.639631 77.906206 -0.295881 77.960894 0.0791187 L 82.238237 0.157244 L 97.699175 -0.237288 L 110.117144 0.00099375 C 110.445269 0.00099375 111.597613 -0.02635 113.570269 -0.0810375 L 113.324175 -2.877913 C 112.937456 -2.983381 112.335894 -3.065413 111.515581 -3.116194 L 109.542925 -3.358381 C 109.210894 -3.409163 108.691363 -3.46385 107.980425 -3.518538 C 106.828081 -3.944319 105.921831 -4.397444 105.265581 -4.877913 C 97.206987 -13.135725 90.351519 -20.940413 84.703081 -28.291975 C 79.05855 -35.647444 74.289019 -42.334944 70.394487 -48.354475 C 69.132769 -50.323225 68.12105 -51.788069 67.351519 -52.749006 C 65.925737 -54.561506 65.078081 -55.893538 64.804644 -56.7451 C 64.199175 -58.827131 63.898394 -61.979475 63.898394 -66.194319 C 63.898394 -82.795881 64.199175 -92.58885 64.804644 -95.577131 C 65.132769 -97.073225 65.570269 -97.979475 66.12105 -98.299788 C 67.542925 -98.991194 73.218706 -99.819319 83.144487 -100.780256 L 83.144487 -101.717756 C 83.144487 -102.342756 82.949175 -103.096663 82.566362 -103.979475 L 61.480425 -103.100569 L 47.394487 -103.819319 L 35.863237 -103.819319 C 34.765581 -103.819319 33.554644 -103.791975 32.238237 -103.737288 C 32.019487 -103.15135 31.906206 -102.729475 31.906206 -102.459944 C 31.906206 -102.194319 31.992144 -101.819319 32.156206 -101.342756 C 32.542925 -101.022444 32.925737 -100.834944 33.312456 -100.780256 L 43.9648 -99.1826 C 47.656206 -98.010725 49.718706 -97.21385 50.160112 -96.784163 C 50.820269 -96.147444 51.234331 -95.159163 51.398394 -93.827131 C 51.453081 -92.8701 51.480425 -85.46385 51.480425 -71.608381 C 51.480425 -66.440413 51.300737 -63.284163 50.945269 -62.139631 C 50.5898 -60.9951 49.425737 -58.983381 47.449175 -56.104475 L 36.679644 -40.202131 L 18.3398 -14.225569 C 15.160112 -9.729475 12.390581 -6.717756 10.031206 -5.1826 C 8.992144 -4.4951 6.386675 -3.967756 2.218706 -3.596663 C 1.781206 -3.596663 1.124956 -3.541975 0.24605 -3.436506 Z M -0.00004375 0.00099375 " transform="matrix(1,0,0,-1,178.3477,416.8174)"/>
<path style="fill-rule:nonzero;fill:rgb(100%,100%,100%);fill-opacity:1;stroke-width:1;stroke-linecap:butt;stroke-linejoin:miter;stroke:rgb(100%,100%,100%);stroke-opacity:1;stroke-miterlimit:10;" d="M 0.00045 0.001 C 0.0551375 0.817406 0.273888 1.555687 0.6567 2.211937 C 4.930138 3.356469 9.0942 4.122094 13.152794 4.504906 C 15.836388 4.723656 17.559044 5.325219 18.328575 6.309594 C 18.87545 7.020531 19.203575 9.641625 19.31295 14.180687 L 19.891075 35.8135 L 19.809044 50.485375 L 19.891075 69.665062 L 19.891075 74.743187 C 19.945763 86.274437 19.887169 93.458031 19.723106 96.301781 C 19.668419 96.84475 19.449669 97.610375 19.06295 98.59475 C 17.633263 99.251 16.434044 99.6885 15.473106 99.903344 C 14.508263 100.122094 10.199669 100.915062 2.547325 102.28225 C 2.492638 102.883812 2.465294 103.321312 2.465294 103.59475 C 2.465294 103.922875 2.492638 104.356469 2.547325 104.903344 C 3.590294 104.903344 5.293419 104.840844 7.652794 104.715844 L 20.164513 104.247094 L 27.410606 104.086937 L 29.551231 104.165062 C 29.824669 104.165062 30.621544 104.110375 31.93795 104.004906 C 35.176231 104.004906 37.043419 104.028344 37.535606 104.086937 L 44.121544 104.575219 C 48.570763 104.575219 51.695763 104.493187 53.504356 104.329125 C 53.449669 103.348656 53.258263 102.28225 52.930138 101.137719 C 52.328575 101.024437 49.480919 100.876 44.383263 100.6885 C 39.289513 100.493187 36.355919 100.180687 35.590294 99.743187 C 34.328575 99.03225 33.699669 96.848656 33.699669 93.192406 C 33.699669 92.317406 33.644981 90.543969 33.535606 87.868187 L 33.535606 82.958031 L 33.617638 67.805687 L 33.617638 62.649437 L 33.7817 35.540062 L 33.535606 12.446312 L 33.617638 7.372094 C 33.617638 5.731469 33.891075 4.723656 34.43795 4.340844 C 35.805138 4.286156 39.832481 4.231469 46.519981 4.176781 L 52.109825 4.176781 L 66.328575 4.668969 C 70.051231 4.778344 72.711388 5.145531 74.301231 5.774437 C 75.891075 6.399437 78.547325 8.243187 82.273888 11.301781 C 84.519981 13.266625 86.273888 15.286156 87.535606 17.360375 C 87.805138 17.797875 88.273888 18.450219 88.930138 19.325219 C 89.973106 20.747094 91.371544 23.586937 93.12545 27.84475 L 95.836388 27.84475 C 95.504356 25.879906 95.152794 24.020531 94.766075 22.274437 C 93.176231 14.575219 92.082481 8.161156 91.480919 3.03225 C 91.371544 1.9385 91.258263 0.930687 91.148888 0.001 L 60.410606 0.899437 C 34.00045 0.899437 18.328575 0.653344 13.394981 0.165062 C 11.863731 0.0556875 10.246544 0.001 8.547325 0.001 Z M 0.00045 0.001 " transform="matrix(1,0,0,-1,280.4683,521.751)"/>
<path style=" stroke:none;fill-rule:nonzero;fill:rgb(100%,100%,100%);fill-opacity:1;" d="M 429.144531 518.285156 C 433.796875 518.285156 438.625 517.632813 443.636719 516.335938 C 448.648438 515.035156 453.09375 512.878906 456.96875 509.859375 C 460.84375 506.84375 463.875 503.414063 466.066406 499.566406 C 468.25 495.722656 470.007813 490.785156 471.339844 484.753906 C 472.667969 478.722656 473.332031 472.691406 473.332031 466.660156 C 473.332031 459.136719 472.222656 451.691406 470.007813 444.332031 C 468.292969 438.746094 465.496094 433.75 461.621094 429.351563 C 457.746094 424.953125 453.066406 421.550781 447.582031 419.140625 C 442.101563 416.734375 436.257813 415.53125 430.054688 415.53125 C 425.019531 415.53125 420.089844 416.363281 415.273438 418.019531 C 410.457031 419.683594 406.496094 421.796875 403.394531 424.371094 C 400.292969 426.945313 397.414063 430.597656 394.757813 435.328125 C 392.097656 440.058594 390.078125 445.273438 388.695313 450.972656 C 387.308594 456.671875 386.617188 461.707031 386.617188 466.078125 C 386.617188 470.671875 387.308594 475.871094 388.695313 481.683594 C 390.078125 487.492188 391.972656 492.527344 394.382813 496.789063 C 396.792969 501.050781 399.753906 504.824219 403.269531 508.117188 C 406.789063 511.410156 410.730469 513.929688 415.105469 515.671875 C 419.480469 517.414063 424.160156 518.285156 429.144531 518.285156 M 371.5 466.660156 C 371.5 461.015625 372.175781 455.992188 373.535156 451.597656 C 374.890625 447.195313 377.175781 442.421875 380.386719 437.277344 C 383.597656 432.132813 387.472656 427.832031 392.015625 424.371094 C 396.554688 420.914063 402.839844 417.855469 410.871094 415.199219 C 416.519531 413.375 423.664063 412.460938 432.300781 412.460938 C 438.113281 412.460938 443.804688 413.234375 449.371094 414.785156 C 454.933594 416.335938 459.988281 418.492188 464.527344 421.261719 C 469.066406 424.027344 473.609375 428.285156 478.148438 434.042969 C 481.304688 438.023438 483.6875 442.3125 485.292969 446.90625 C 487.398438 452.9375 488.449219 459.164063 488.449219 465.582031 C 488.449219 472.886719 487.742188 478.941406 486.332031 483.757813 C 484.917969 488.570313 482.550781 493.332031 479.230469 498.03125 C 476.625 501.683594 472.167969 505.890625 465.859375 510.648438 C 461.648438 513.855469 456.414063 516.445313 450.160156 518.40625 C 443.902344 520.371094 437.144531 521.355469 429.890625 521.355469 C 422.527344 521.355469 415.964844 520.496094 410.207031 518.78125 C 404.445313 517.066406 399.644531 514.976563 395.792969 512.515625 C 391.945313 510.054688 387.988281 506.414063 383.917969 501.601563 C 379.847656 496.789063 376.757813 491.476563 374.65625 485.667969 C 372.550781 479.855469 371.5 473.519531 371.5 466.660156 "/>
<path style="fill:none;stroke-width:1;stroke-linecap:butt;stroke-linejoin:miter;stroke:rgb(100%,100%,100%);stroke-opacity:1;stroke-miterlimit:10;" d="M 0.00093125 -0.00095625 C 4.653275 -0.00095625 9.4814 0.651388 14.493119 1.948263 C 19.504837 3.249044 23.95015 5.405294 27.82515 8.424825 C 31.70015 11.44045 34.7314 14.870138 36.922806 18.717794 C 39.1064 22.561544 40.864212 27.499044 42.196244 33.530294 C 43.524369 39.561544 44.188431 45.592794 44.188431 51.624044 C 44.188431 59.147481 43.079056 66.592794 40.864212 73.952169 C 39.149369 79.538106 36.352494 84.5342 32.477494 88.932638 C 28.602494 93.331075 23.922806 96.733419 18.438431 99.143575 C 12.957962 101.549825 7.114212 102.75295 0.911087 102.75295 C -4.124069 102.75295 -9.053756 101.920919 -13.870163 100.264669 C -18.686569 98.600606 -22.647506 96.487325 -25.749069 93.913106 C -28.850631 91.338888 -31.729538 87.686544 -34.385788 82.956075 C -37.045944 78.225606 -39.065475 73.010763 -40.448288 67.311544 C -41.835006 61.612325 -42.526413 56.577169 -42.526413 52.206075 C -42.526413 47.612325 -41.835006 42.413106 -40.448288 36.600606 C -39.065475 30.792013 -37.170944 25.756856 -34.760788 21.495138 C -32.350631 17.233419 -29.389694 13.459981 -25.874069 10.167013 C -22.354538 6.874044 -18.413131 4.354513 -14.038131 2.612325 C -9.663131 0.870138 -4.983444 -0.00095625 0.00093125 -0.00095625 Z M -57.6436 51.624044 C -57.6436 57.268575 -56.967819 62.292013 -55.608444 66.686544 C -54.252975 71.088888 -51.967819 75.862325 -48.756881 81.006856 C -45.545944 86.151388 -41.670944 90.452169 -37.127975 93.913106 C -32.588913 97.370138 -26.303756 100.428731 -18.272506 103.084981 C -12.624069 104.9092 -5.479538 105.823263 3.157181 105.823263 C 8.969681 105.823263 14.661087 105.049825 20.227494 103.499044 C 25.789994 101.948263 30.844681 99.792013 35.383744 97.022481 C 39.922806 94.256856 44.465775 89.999044 49.004837 84.241231 C 52.161087 80.260763 54.5439 75.9717 56.149369 71.37795 C 58.254837 65.3467 59.305619 59.120138 59.305619 52.702169 C 59.305619 45.397481 58.598587 39.342794 57.188431 34.526388 C 55.774369 29.713888 53.407181 24.952169 50.086869 20.25295 C 47.4814 16.600606 43.024369 12.393575 36.715775 7.635763 C 32.504837 4.428731 27.270462 1.838888 21.016556 -0.12205 C 14.758744 -2.086894 8.000931 -3.071269 0.747025 -3.071269 C -6.616256 -3.071269 -13.178756 -2.211894 -18.936569 -0.49705 C -24.698288 1.217794 -29.499069 3.307638 -33.350631 5.768575 C -37.198288 8.229513 -41.155319 11.870138 -45.225631 16.682638 C -49.295944 21.495138 -52.385788 26.807638 -54.48735 32.616231 C -56.592819 38.428731 -57.6436 44.764669 -57.6436 51.624044 Z M -57.6436 51.624044 " transform="matrix(1,0,0,-1,429.1436,518.2842)"/>
<path style=" stroke:none;fill-rule:nonzero;fill:rgb(100%,100%,100%);fill-opacity:1;" d="M 520.84375 464.371094 C 522.367188 464.429688 523.496094 464.457031 524.230469 464.457031 C 528.289063 464.457031 532.972656 463.984375 538.273438 463.046875 C 541.996094 462.328125 545.015625 461.152344 547.328125 459.523438 C 549.640625 457.890625 551.570313 455.476563 553.121094 452.269531 C 554.671875 449.0625 555.449219 445.75 555.449219 442.324219 C 555.449219 438.566406 554.234375 434.585938 551.8125 430.386719 C 549.949219 427.183594 546.804688 424.503906 542.378906 422.347656 C 537.949219 420.191406 532.632813 419.113281 526.429688 419.113281 C 524.90625 419.113281 522.929688 419.195313 520.507813 419.363281 C 520.28125 422.238281 520.167969 424.445313 520.167969 425.992188 L 520.589844 441.492188 L 520.507813 447.878906 C 520.507813 452.1875 520.617188 457.683594 520.84375 464.371094 M 489.453125 518.679688 C 497.648438 517.742188 502.277344 517.078125 503.34375 516.6875 C 504.074219 516.414063 504.75 515.582031 505.367188 514.199219 L 505.367188 513.285156 C 505.367188 511.902344 505.589844 506.898438 506.039063 498.269531 C 506.152344 495.835938 506.207031 493.457031 506.207031 491.136719 L 505.953125 481.261719 L 506.125 470.058594 L 506.039063 449.234375 L 506.125 434.296875 C 506.179688 427.992188 505.6875 424.148438 504.644531 422.765625 C 503.601563 421.382813 500.90625 420.398438 496.566406 419.816406 C 492.21875 419.238281 489.824219 418.808594 489.371094 418.53125 C 488.917969 418.257813 488.695313 417.8125 488.695313 417.207031 C 488.695313 416.816406 488.78125 416.316406 488.949219 415.710938 C 489.511719 415.210938 490.8125 414.933594 492.839844 414.878906 C 493.121094 414.878906 493.898438 414.808594 495.167969 414.671875 C 496.4375 414.535156 497.632813 414.464844 498.765625 414.464844 L 505.699219 414.464844 L 527.953125 414.214844 C 540.53125 414.214844 549.34375 415.128906 554.390625 416.957031 C 559.4375 418.78125 563.457031 421.867188 566.449219 426.214844 C 569.4375 430.5625 570.933594 435.417969 570.933594 440.789063 C 570.933594 450.976563 565.492188 458.753906 554.621094 464.121094 C 552.765625 465.0625 551.300781 465.894531 550.230469 466.613281 C 552.144531 470.597656 554.816406 475.378906 558.25 480.964844 L 568.980469 499.050781 C 573.265625 505.707031 576.226563 509.878906 577.863281 511.566406 C 579.5 513.261719 581.488281 514.660156 583.828125 515.769531 C 586.167969 516.878906 590.105469 517.933594 595.632813 518.929688 C 595.691406 519.484375 595.71875 519.925781 595.71875 520.257813 C 595.71875 520.589844 595.691406 521.007813 595.632813 521.503906 C 587.90625 521.613281 578.855469 521.671875 568.480469 521.671875 C 567.742188 521.671875 566.730469 521.613281 565.433594 521.503906 C 561.425781 513.964844 556.714844 505.675781 551.300781 496.636719 L 538.78125 474.179688 C 537.089844 471.851563 535.695313 470.394531 534.59375 469.816406 C 533.492188 469.234375 532.039063 468.941406 530.238281 468.941406 L 523.042969 469.019531 L 520.675781 468.941406 C 520.507813 470.714844 520.421875 474.339844 520.421875 479.820313 L 520.421875 508.21875 C 520.367188 509.269531 520.589844 510.738281 521.097656 512.617188 C 521.550781 513.671875 522.324219 514.515625 523.425781 515.152344 C 524.527344 515.789063 527.699219 516.746094 532.945313 518.015625 L 536.410156 518.847656 C 536.863281 519.402344 537.089844 520.148438 537.089844 521.089844 C 535.570313 521.367188 534.496094 521.503906 533.878906 521.503906 C 528.8125 521.503906 525.234375 521.449219 523.152344 521.339844 C 522.082031 521.28125 521.210938 521.253906 520.535156 521.253906 L 509.046875 521.421875 L 497.816406 521.339844 C 497.308594 521.339844 494.746094 521.421875 490.132813 521.585938 L 488.441406 521.253906 L 488.273438 520.425781 C 488.273438 519.925781 488.664063 519.347656 489.453125 518.679688 "/>
<path style="fill:none;stroke-width:1;stroke-linecap:butt;stroke-linejoin:miter;stroke:rgb(100%,100%,100%);stroke-opacity:1;stroke-miterlimit:10;" d="M -0.00195 0.00000625 C 1.521488 -0.0585875 2.650394 -0.0859312 3.384769 -0.0859312 C 7.443363 -0.0859312 12.126956 0.386725 17.427738 1.324225 C 21.150394 2.042975 24.169925 3.218756 26.482425 4.847663 C 28.794925 6.480475 30.724613 8.894538 32.275394 12.101569 C 33.826175 15.3086 34.603519 18.6211 34.603519 22.046881 C 34.603519 25.804694 33.388675 29.785163 30.9668 33.984381 C 29.103519 37.187506 25.958988 39.867194 21.533206 42.023444 C 17.103519 44.179694 11.787113 45.257819 5.583988 45.257819 C 4.06055 45.257819 2.083988 45.175788 -0.337887 45.007819 C -0.56445 42.132819 -0.677731 39.925788 -0.677731 38.378913 L -0.255856 22.878913 L -0.337887 16.492194 C -0.337887 12.1836 -0.228512 6.687506 -0.00195 0.00000625 Z M -31.392575 -54.308587 C -23.197262 -53.371087 -18.568356 -52.707025 -17.50195 -52.3164 C -16.771481 -52.042962 -16.0957 -51.210931 -15.478512 -49.828119 L -15.478512 -48.914056 C -15.478512 -47.531244 -15.255856 -42.527337 -14.806637 -33.898431 C -14.693356 -31.464837 -14.638669 -29.085931 -14.638669 -26.765619 L -14.892575 -16.890619 L -14.7207 -5.687494 L -14.806637 15.136725 L -14.7207 30.074225 C -14.666012 36.378913 -15.1582 40.222663 -16.201169 41.605475 C -17.244137 42.988288 -19.93945 43.972663 -24.279294 44.554694 C -28.62695 45.132819 -31.021481 45.562506 -31.474606 45.83985 C -31.927731 46.113288 -32.150387 46.5586 -32.150387 47.164069 C -32.150387 47.554694 -32.06445 48.054694 -31.896481 48.660163 C -31.333981 49.160163 -30.0332 49.437506 -28.005856 49.492194 C -27.724606 49.492194 -26.947262 49.562506 -25.677731 49.699225 C -24.4082 49.835944 -23.212887 49.906256 -22.080075 49.906256 L -15.146481 49.906256 L 7.107425 50.156256 C 19.68555 50.156256 28.49805 49.242194 33.544925 47.414069 C 38.5918 45.58985 42.611331 42.503913 45.603519 38.156256 C 48.5918 33.8086 50.087894 28.953131 50.087894 23.582038 C 50.087894 13.394538 44.646488 5.617194 33.775394 0.250006 C 31.919925 -0.6914 30.455081 -1.523431 29.384769 -2.242181 C 31.298831 -6.226556 33.970706 -11.007806 37.4043 -16.593744 L 48.134769 -34.679681 C 52.419925 -41.335931 55.380863 -45.507806 57.017581 -47.195306 C 58.6543 -48.890619 60.642581 -50.289056 62.982425 -51.398431 C 65.322269 -52.507806 69.259769 -53.562494 74.787113 -54.558587 C 74.845706 -55.113275 74.87305 -55.554681 74.87305 -55.886712 C 74.87305 -56.218744 74.845706 -56.636712 74.787113 -57.132806 C 67.06055 -57.242181 58.009769 -57.300775 47.634769 -57.300775 C 46.896488 -57.300775 45.884769 -57.242181 44.587894 -57.132806 C 40.580081 -49.593744 35.869144 -41.304681 30.455081 -32.265619 L 17.93555 -9.808587 C 16.244144 -7.480462 14.849613 -6.023431 13.74805 -5.445306 C 12.646488 -4.863275 11.193363 -4.570306 9.392581 -4.570306 L 2.197269 -4.648431 L -0.169919 -4.570306 C -0.337887 -6.343744 -0.423825 -9.968744 -0.423825 -15.449212 L -0.423825 -43.84765 C -0.478512 -44.898431 -0.255856 -46.367181 0.251956 -48.246087 C 0.705081 -49.300775 1.478519 -50.144525 2.580081 -50.781244 C 3.681644 -51.417962 6.853519 -52.374994 12.099613 -53.644525 L 15.564456 -54.476556 C 16.017581 -55.031244 16.244144 -55.777337 16.244144 -56.718744 C 14.724613 -56.996087 13.650394 -57.132806 13.033206 -57.132806 C 7.9668 -57.132806 4.388675 -57.078119 2.306644 -56.968744 C 1.236331 -56.91015 0.365238 -56.882806 -0.310544 -56.882806 L -11.798825 -57.050775 L -23.029294 -56.968744 C -23.537106 -56.968744 -26.099606 -57.050775 -30.712887 -57.214837 L -32.404294 -56.882806 L -32.572262 -56.054681 C -32.572262 -55.554681 -32.181637 -54.976556 -31.392575 -54.308587 Z M -31.392575 -54.308587 " transform="matrix(1,0,0,-1,520.8457,464.3711)"/>
<path style="fill-rule:nonzero;fill:rgb(100%,100%,100%);fill-opacity:1;stroke-width:1;stroke-linecap:butt;stroke-linejoin:miter;stroke:rgb(100%,100%,100%);stroke-opacity:1;stroke-miterlimit:10;" d="M 0.00093125 0.00001875 C 1.051713 -0.234356 2.379838 -0.328106 3.9814 -0.328106 C 9.7939 -0.328106 13.332963 2.074237 13.332963 6.464862 C 13.332963 10.664081 9.848588 12.695331 4.536088 12.695331 C 2.434525 12.695331 0.829056 12.554706 0.00093125 12.3633 Z M -4.811569 15.339862 C -2.491256 15.667987 0.551713 15.953144 4.426713 15.953144 C 9.184525 15.953144 12.6689 15.007831 14.883744 13.308612 C 16.930619 11.8008 18.145463 9.484394 18.145463 6.652362 C 18.145463 3.773456 17.153275 1.511737 15.270463 -0.140606 C 12.727494 -2.453106 8.57515 -3.632794 3.872025 -3.632794 C 2.434525 -3.632794 1.1064 -3.585919 0.00093125 -3.351544 L 0.00093125 -16.093731 L -4.811569 -16.093731 Z M -4.811569 15.339862 " transform="matrix(1,0,0,-1,137.5186,551.3633)"/>
<path style="fill-rule:nonzero;fill:rgb(100%,100%,100%);fill-opacity:1;stroke-width:1;stroke-linecap:butt;stroke-linejoin:miter;stroke:rgb(100%,100%,100%);stroke-opacity:1;stroke-miterlimit:10;" d="M 0.00005 -0.00195 L 4.277394 -0.00195 C 8.746144 -0.00195 11.582081 2.0918 11.582081 5.24805 C 11.582081 8.814456 8.554737 10.37305 4.132862 10.412113 C 2.113331 10.412113 0.671925 10.24805 0.00005 10.087894 Z M -4.183544 12.587894 C -2.066356 12.955081 0.960987 13.162113 3.8438 13.162113 C 8.316456 13.162113 11.199269 12.4668 13.2188 10.9043 C 14.851612 9.677738 15.765675 7.791019 15.765675 5.658206 C 15.765675 2.009769 13.074269 -0.4082 9.660206 -1.392575 L 9.660206 -1.517575 C 12.160206 -2.255856 13.652394 -4.224606 14.421925 -7.091794 C 15.476612 -10.947262 16.246144 -13.611325 16.918019 -14.677731 L 12.5938 -14.677731 C 12.06255 -13.896481 11.3438 -11.521481 10.429737 -8.076169 C 9.4688 -4.263669 7.738331 -2.830075 3.941456 -2.705075 L 0.00005 -2.705075 L 0.00005 -14.677731 L -4.183544 -14.677731 Z M -4.183544 12.587894 " transform="matrix(1,0,0,-1,177.7812,552.7793)"/>
<path style=" stroke:none;fill-rule:nonzero;fill:rgb(100%,100%,100%);fill-opacity:1;" d="M 212.160156 553.804688 C 212.160156 559.707031 215.910156 564.996094 222.492188 564.996094 C 229.125 564.996094 232.875 559.789063 232.875 553.515625 C 232.875 548.023438 229.511719 542.28125 222.542969 542.28125 C 215.621094 542.28125 212.160156 547.738281 212.160156 553.804688 M 237.296875 553.351563 C 237.296875 562.867188 230.519531 567.90625 222.253906 567.90625 C 213.695313 567.90625 207.6875 562.25 207.6875 553.886719 C 207.6875 545.113281 214.082031 539.371094 222.734375 539.371094 C 231.578125 539.371094 237.296875 545.152344 237.296875 553.351563 "/>
<path style="fill:none;stroke-width:1;stroke-linecap:butt;stroke-linejoin:miter;stroke:rgb(100%,100%,100%);stroke-opacity:1;stroke-miterlimit:10;" d="M 0.00095625 -0.0009875 C 0.00095625 -5.903331 3.750956 -11.192394 10.332988 -11.192394 C 16.9658 -11.192394 20.7158 -5.985363 20.7158 0.288075 C 20.7158 5.780262 17.352519 11.52245 10.383769 11.52245 C 3.461894 11.52245 0.00095625 6.065419 0.00095625 -0.0009875 Z M 25.137675 0.452137 C 25.137675 -9.063488 18.360331 -14.10255 10.094706 -14.10255 C 1.536113 -14.10255 -4.4717 -8.4463 -4.4717 -0.0830188 C -4.4717 8.690419 1.922831 14.432606 10.575175 14.432606 C 19.418925 14.432606 25.137675 8.651356 25.137675 0.452137 Z M 25.137675 0.452137 " transform="matrix(1,0,0,-1,212.1592,553.8037)"/>
<path style="fill-rule:nonzero;fill:rgb(100%,100%,100%);fill-opacity:1;stroke-width:1;stroke-linecap:butt;stroke-linejoin:miter;stroke:rgb(100%,100%,100%);stroke-opacity:1;stroke-miterlimit:10;" d="M 0.001475 -0.0009625 C 0.915538 -0.204088 2.067881 -0.286119 3.462413 -0.286119 C 8.509288 -0.286119 11.583506 1.803725 11.583506 5.616225 C 11.583506 9.264662 8.556163 11.026381 3.942881 11.026381 C 2.114756 11.026381 0.720225 10.905287 0.001475 10.741225 Z M -4.182119 13.323256 C -2.162587 13.612319 0.481944 13.858412 3.845225 13.858412 C 7.978038 13.858412 11.005381 13.0381 12.931163 11.561537 C 14.708506 10.249037 15.7671 8.241225 15.7671 5.780287 C 15.7671 3.280287 14.899913 1.311537 13.2671 -0.122056 C 11.056163 -2.133775 7.450694 -3.157213 3.364756 -3.157213 C 2.114756 -3.157213 0.962413 -3.114244 0.001475 -2.911119 L 0.001475 -13.981431 L -4.182119 -13.981431 Z M -4.182119 13.323256 " transform="matrix(1,0,0,-1,256.9204,553.4756)"/>
<path style="fill-rule:nonzero;fill:rgb(100%,100%,100%);fill-opacity:1;stroke-width:1;stroke-linecap:butt;stroke-linejoin:miter;stroke:rgb(100%,100%,100%);stroke-opacity:1;stroke-miterlimit:10;" d="M 0.00005 0.001 L -12.5937 0.001 L -12.5937 -9.963844 L 1.441456 -9.963844 L 1.441456 -12.956031 L -16.773387 -12.956031 L -16.773387 14.676781 L 0.722706 14.676781 L 0.722706 11.684594 L -12.5937 11.684594 L -12.5937 2.950219 L 0.00005 2.950219 Z M 0.00005 0.001 " transform="matrix(1,0,0,-1,305.0937,554.501)"/>
<path style="fill-rule:nonzero;fill:rgb(100%,100%,100%);fill-opacity:1;stroke-width:1;stroke-linecap:butt;stroke-linejoin:miter;stroke:rgb(100%,100%,100%);stroke-opacity:1;stroke-miterlimit:10;" d="M -0.00195 -0.00195 L 4.275394 -0.00195 C 8.74805 -0.00195 11.583987 2.0918 11.583987 5.24805 C 11.583987 8.814456 8.556644 10.37305 4.134769 10.412113 C 2.115237 10.412113 0.673831 10.24805 -0.00195 10.087894 Z M -4.181638 12.587894 C -2.068356 12.955081 0.962894 13.162113 3.845706 13.162113 C 8.314456 13.162113 11.197269 12.4668 13.2168 10.9043 C 14.853519 9.677738 15.767581 7.791019 15.767581 5.658206 C 15.767581 2.009769 13.072269 -0.4082 9.662112 -1.392575 L 9.662112 -1.517575 C 12.158206 -2.255856 13.650394 -4.224606 14.419925 -7.091794 C 15.478519 -10.947262 16.244144 -13.611325 16.919925 -14.677731 L 12.5918 -14.677731 C 12.064456 -13.896481 11.345706 -11.521481 10.431644 -8.076169 C 9.470706 -4.263669 7.736331 -2.830075 3.939456 -2.705075 L -0.00195 -2.705075 L -0.00195 -14.677731 L -4.181638 -14.677731 Z M -4.181638 12.587894 " transform="matrix(1,0,0,-1,326.1582,552.7793)"/>
<path style="fill-rule:nonzero;fill:rgb(100%,100%,100%);fill-opacity:1;stroke-width:1;stroke-linecap:butt;stroke-linejoin:miter;stroke:rgb(100%,100%,100%);stroke-opacity:1;stroke-miterlimit:10;" d="M -0.0000125 0.00093125 L -9.855481 0.00093125 L -9.855481 3.032181 L 14.1328 3.032181 L 14.1328 0.00093125 L 4.230456 0.00093125 L 4.230456 -24.600631 L -0.0000125 -24.600631 Z M -0.0000125 0.00093125 " transform="matrix(1,0,0,-1,364.4297,542.8564)"/>
<path style="fill-rule:nonzero;fill:rgb(100%,100%,100%);fill-opacity:1;stroke-width:1;stroke-linecap:butt;stroke-linejoin:miter;stroke:rgb(100%,100%,100%);stroke-opacity:1;stroke-miterlimit:10;" d="M 396.355469 224.542969 L 392.175781 224.542969 L 392.175781 252.175781 L 396.355469 252.175781 Z M 396.355469 224.542969 " transform="matrix(1,0,0,-1,0,792)"/>
<path style="fill-rule:nonzero;fill:rgb(100%,100%,100%);fill-opacity:1;stroke-width:1;stroke-linecap:butt;stroke-linejoin:miter;stroke:rgb(100%,100%,100%);stroke-opacity:1;stroke-miterlimit:10;" d="M 0.0000125 0.001 L -12.593737 0.001 L -12.593737 -9.963844 L 1.441419 -9.963844 L 1.441419 -12.956031 L -16.773425 -12.956031 L -16.773425 14.676781 L 0.722669 14.676781 L 0.722669 11.684594 L -12.593737 11.684594 L -12.593737 2.950219 L 0.0000125 2.950219 Z M 0.0000125 0.001 " transform="matrix(1,0,0,-1,430.4453,554.501)"/>
<path style="fill-rule:nonzero;fill:rgb(100%,100%,100%);fill-opacity:1;stroke-width:1;stroke-linecap:butt;stroke-linejoin:miter;stroke:rgb(100%,100%,100%);stroke-opacity:1;stroke-miterlimit:10;" d="M -0.001 0.001925 C 1.874 -0.98245 4.612281 -1.802762 7.499 -1.802762 C 11.776344 -1.802762 14.276344 0.123019 14.276344 2.912081 C 14.276344 5.494113 12.545875 6.970675 8.170875 8.404269 C 2.885719 10.005831 -0.383812 12.341769 -0.383812 16.2363 C -0.383812 20.540988 3.795875 23.740206 10.09275 23.740206 C 13.409156 23.740206 15.8115 23.083956 17.256813 22.388644 L 16.100563 19.474581 C 15.045875 19.966769 12.881813 20.787081 9.948219 20.787081 C 5.526344 20.787081 3.846656 18.533175 3.846656 16.646456 C 3.846656 14.064425 5.815406 12.790988 10.284156 11.314425 C 15.764625 9.513644 18.553688 7.259738 18.553688 3.197238 C 18.553688 -1.064481 14.854469 -4.755887 7.209938 -4.755887 C 4.084938 -4.755887 0.674781 -3.978544 -1.059594 -2.994169 Z M -0.001 0.001925 " transform="matrix(1,0,0,-1,446.751,563.1113)"/>
<path style="fill-rule:nonzero;fill:rgb(100%,100%,100%);fill-opacity:1;stroke-width:1;stroke-linecap:butt;stroke-linejoin:miter;stroke:rgb(100%,100%,100%);stroke-opacity:1;stroke-miterlimit:10;" d="M 0.00146875 -0.00146875 L -6.998531 -37.665531 L 5.3335 -37.001469 Z M 0.00146875 -0.00146875 " transform="matrix(1,0,0,-1,298.6665,208.6665)"/>
<path style=" stroke:none;fill-rule:nonzero;fill:rgb(100%,100%,100%);fill-opacity:1;" d="M 284.667969 262 C 284.667969 262 318.664063 260.667969 334.332031 273.667969 C 350 286.667969 351.667969 306 351.667969 306 C 351.667969 306 341.332031 293 320.667969 291.332031 C 311.332031 269.332031 284.667969 262 284.667969 262 "/>
<path style="fill:none;stroke-width:1;stroke-linecap:butt;stroke-linejoin:miter;stroke:rgb(100%,100%,100%);stroke-opacity:1;stroke-miterlimit:10;" d="M 0.00146875 0 C 0.00146875 0 33.997563 1.332031 49.665531 -11.667969 C 65.3335 -24.667969 67.001469 -44 67.001469 -44 C 67.001469 -44 56.665531 -31 36.001469 -29.332031 C 26.665531 -7.332031 0.00146875 0 0.00146875 0 Z M 0.00146875 0 " transform="matrix(1,0,0,-1,284.6665,262)"/>
<path style=" stroke:none;fill-rule:nonzero;fill:rgb(100%,100%,100%);fill-opacity:1;" d="M 238.667969 325 C 238.667969 325 258.332031 293 303.332031 296 C 348.332031 299 361.667969 324.332031 361.667969 324.332031 L 353 326.667969 L 353 342 L 342 337.332031 L 342 318.332031 L 336 315.332031 L 336 334.667969 L 326.332031 333 L 326.332031 309.332031 L 321 308 L 321 331.332031 L 312.667969 330.667969 L 312.667969 306 L 309 305.332031 L 309 330.332031 L 300.332031 330.332031 L 300.332031 306 C 300.332031 306 274 300.332031 257.667969 321.667969 C 255.332031 322 238.667969 325 238.667969 325 "/>
<path style="fill:none;stroke-width:1;stroke-linecap:butt;stroke-linejoin:miter;stroke:rgb(100%,100%,100%);stroke-opacity:1;stroke-miterlimit:10;" d="M 0.00146875 0 C 0.00146875 0 19.665531 32 64.665531 29 C 109.665531 26 123.001469 0.667969 123.001469 0.667969 L 114.3335 -1.667969 L 114.3335 -17 L 103.3335 -12.332031 L 103.3335 6.667969 L 97.3335 9.667969 L 97.3335 -9.667969 L 87.665531 -8 L 87.665531 15.667969 L 82.3335 17 L 82.3335 -6.332031 L 74.001469 -5.667969 L 74.001469 19 L 70.3335 19.667969 L 70.3335 -5.332031 L 61.665531 -5.332031 L 61.665531 19 C 61.665531 19 35.3335 24.667969 19.001469 3.332031 C 16.665531 3 0.00146875 0 0.00146875 0 Z M 0.00146875 0 " transform="matrix(1,0,0,-1,238.6665,325)"/>
<path style=" stroke:none;fill-rule:nonzero;fill:rgb(100%,100%,100%);fill-opacity:1;" d="M 243.332031 369.332031 L 224 372.667969 C 224 372.667969 223.667969 360 244.332031 351.667969 C 247.332031 350.332031 263.667969 343.667969 299 343.667969 C 347.667969 344.332031 359 358.332031 362.667969 361.667969 C 366.332031 365 370.332031 374.667969 370.332031 374.667969 L 349.667969 371.332031 C 349.667969 371.332031 344 352 299 351.667969 C 254 351.332031 243.332031 369.332031 243.332031 369.332031 "/>
<path style="fill:none;stroke-width:1;stroke-linecap:butt;stroke-linejoin:miter;stroke:rgb(100%,100%,100%);stroke-opacity:1;stroke-miterlimit:10;" d="M -0.00146875 0.00146875 L -19.3335 -3.334469 C -19.3335 -3.334469 -19.665531 9.3335 0.998531 17.665531 C 3.998531 19.001469 20.334469 25.665531 55.6665 25.665531 C 104.334469 25.001469 115.6665 11.001469 119.334469 7.665531 C 122.998531 4.3335 126.998531 -5.334469 126.998531 -5.334469 L 106.334469 -1.998531 C 106.334469 -1.998531 100.6665 17.3335 55.6665 17.665531 C 10.6665 18.001469 -0.00146875 0.00146875 -0.00146875 0.00146875 Z M -0.00146875 0.00146875 " transform="matrix(1,0,0,-1,243.3335,369.3335)"/>
<path style=" stroke:none;fill-rule:nonzero;fill:rgb(100%,100%,100%);fill-opacity:1;" d="M 375.667969 386 L 342.332031 386 C 342.332031 386 336 381.332031 318.667969 379 C 301.335938 376.667969 248.332031 374 238.332031 386 C 236 389 246 396.332031 246 396.332031 L 243.335938 403.332031 C 243.335938 403.332031 214.335938 395.332031 214.335938 384.667969 C 215 377.667969 245.335938 368 299.335938 368.667969 C 353.332031 369.332031 375.667969 386 375.667969 386 "/>
<path style="fill:none;stroke-width:1;stroke-linecap:butt;stroke-linejoin:miter;stroke:rgb(100%,100%,100%);stroke-opacity:1;stroke-miterlimit:10;" d="M 0.00096875 0 L -33.334969 0 C -33.334969 0 -39.667 4.667969 -56.999031 7 C -74.331063 9.332031 -127.334969 12 -137.334969 0 C -139.667 -3 -129.667 -10.332031 -129.667 -10.332031 L -132.331063 -17.332031 C -132.331063 -17.332031 -161.331063 -9.332031 -161.331063 1.332031 C -160.667 8.332031 -130.331063 18 -76.331063 17.332031 C -22.334969 16.667969 0.00096875 0 0.00096875 0 Z M 0.00096875 0 " transform="matrix(1,0,0,-1,375.667,386)"/>
</g>
</svg>
